<?xml version="1.0" encoding="utf-8"?>
<!-- Generator: Adobe Illustrator 24.2.2, SVG Export Plug-In . SVG Version: 6.00 Build 0)  -->
<svg version="1.1" id="Layer_1" xmlns="http://www.w3.org/2000/svg" xmlns:xlink="http://www.w3.org/1999/xlink" x="0px" y="0px"
	 viewBox="0 0 75.57 104.68" style="enable-background:new 0 0 75.57 104.68;" xml:space="preserve">
<style type="text/css">
	.st0{fill:#00A19A;}
	.st1{fill:#9D9D9C;}
	.st2{fill:url(#SVGID_1_);}
	.st3{fill:url(#SVGID_2_);}
</style>
<g>
	<path class="st0" d="M11.6,82.82c0-0.08,0.04-0.13,0.13-0.13h1.52c0.08,0,0.13,0.04,0.13,0.13v2.94c0.02,0.21,0.11,0.37,0.27,0.49
		c0.16,0.12,0.39,0.18,0.68,0.18h0.27c0.17,0,0.29,0.06,0.37,0.17c0.08,0.12,0.13,0.31,0.13,0.57c0,0.51-0.17,0.76-0.5,0.76
		c-0.27,0-0.51-0.03-0.71-0.08c-0.2-0.05-0.37-0.17-0.51-0.34v0.2c0,0.95-0.18,1.65-0.55,2.1c-0.37,0.45-0.99,0.68-1.87,0.68h-0.57
		c-0.08,0-0.12-0.04-0.12-0.13v-1.26c0-0.08,0.04-0.13,0.12-0.13h0.27c0.22,0,0.4-0.04,0.52-0.11c0.13-0.07,0.22-0.17,0.28-0.31
		c0.06-0.14,0.1-0.31,0.12-0.5c0.02-0.2,0.02-0.43,0.02-0.69V82.82z"/>
	<path class="st0" d="M16,82.82c0-0.08,0.04-0.13,0.12-0.13h1.5c0.08,0,0.12,0.04,0.12,0.13v2.94c0.02,0.21,0.11,0.37,0.27,0.49
		c0.16,0.12,0.39,0.18,0.68,0.18h0.29c0.17,0,0.29,0.06,0.37,0.17c0.08,0.12,0.13,0.31,0.13,0.57c0,0.51-0.17,0.76-0.5,0.76
		c-0.32,0-0.59-0.04-0.82-0.11c-0.23-0.08-0.43-0.25-0.58-0.51c-0.13,0.27-0.33,0.44-0.59,0.51c-0.26,0.08-0.62,0.11-1.07,0.11
		h-1.29c-0.17,0-0.29-0.05-0.37-0.16c-0.08-0.1-0.13-0.3-0.13-0.58c0-0.28,0.04-0.48,0.12-0.6c0.08-0.12,0.21-0.17,0.38-0.17h0.77
		c0.27,0,0.43-0.08,0.5-0.23s0.1-0.42,0.1-0.79V82.82z M15.29,81.44c-0.08,0-0.12-0.04-0.12-0.13v-1.22c0-0.08,0.04-0.13,0.12-0.13
		h1.25c0.08,0,0.13,0.04,0.13,0.13v1.22c0,0.08-0.04,0.13-0.13,0.13H15.29z M16.26,79.65c-0.08,0-0.13-0.04-0.13-0.13v-1.22
		c0-0.08,0.04-0.12,0.13-0.12h1.25c0.08,0,0.13,0.04,0.13,0.12v1.22c0,0.08-0.04,0.13-0.13,0.13H16.26z M17.21,81.44
		c-0.08,0-0.13-0.04-0.13-0.13v-1.22c0-0.08,0.04-0.13,0.13-0.13h1.26c0.08,0,0.13,0.04,0.13,0.13v1.22c0,0.08-0.04,0.13-0.13,0.13
		H17.21z"/>
	<path class="st0" d="M21.9,82.61c0.43,0.02,0.81,0.06,1.14,0.14c0.33,0.07,0.61,0.21,0.83,0.39c0.22,0.19,0.39,0.44,0.5,0.75
		s0.17,0.71,0.17,1.2v0.73c0,0.41-0.04,0.75-0.12,1.02c-0.08,0.27-0.2,0.49-0.35,0.65c-0.15,0.16-0.35,0.28-0.59,0.35
		s-0.51,0.11-0.83,0.11h-3.67c-0.17,0-0.29-0.06-0.37-0.17c-0.08-0.12-0.13-0.32-0.13-0.62c0-0.28,0.04-0.47,0.12-0.57
		c0.08-0.1,0.21-0.14,0.38-0.14h2.79c0.2,0,0.36-0.01,0.49-0.04c0.12-0.03,0.22-0.07,0.29-0.13c0.07-0.06,0.11-0.15,0.13-0.26
		c0.02-0.11,0.03-0.25,0.03-0.41v-0.57c0-0.33-0.09-0.57-0.27-0.72s-0.46-0.22-0.85-0.22h-1.87c-0.08,0-0.13-0.04-0.13-0.12v-1.01
		c0-0.06,0.03-0.12,0.1-0.19s0.13-0.13,0.17-0.19l2.64-3.13c0.05-0.06,0.1-0.07,0.16-0.04l1.04,0.87c0.07,0.05,0.08,0.11,0.05,0.17
		L21.9,82.61z"/>
	<path class="st0" d="M25.83,78.11c-0.05-0.09-0.09-0.19-0.13-0.3c-0.03-0.11-0.05-0.23-0.05-0.36c0-0.15,0.03-0.3,0.08-0.45
		c0.05-0.15,0.14-0.28,0.24-0.41c0.11-0.12,0.25-0.22,0.42-0.29c0.17-0.07,0.38-0.11,0.62-0.11c0.27,0,0.5,0.05,0.69,0.14
		c0.2,0.1,0.35,0.21,0.46,0.36c0.02,0.04,0.02,0.08-0.01,0.11l-0.37,0.39c-0.04,0.05-0.08,0.05-0.13,0.01
		c-0.17-0.19-0.37-0.29-0.59-0.29c-0.16,0-0.29,0.05-0.39,0.15c-0.1,0.1-0.15,0.23-0.15,0.4c0,0.15,0.04,0.28,0.12,0.39
		c0.08,0.11,0.16,0.19,0.26,0.25h1.25c0.05,0,0.08,0.03,0.08,0.09v0.56c0,0.06-0.03,0.09-0.08,0.09h-2.78
		c-0.05,0-0.07-0.03-0.07-0.09v-0.56c0-0.06,0.02-0.09,0.07-0.09H25.83z M27.66,87.82c0,0.08-0.04,0.13-0.12,0.13h-1.5
		c-0.08,0-0.12-0.04-0.12-0.13v-8.23c0-0.08,0.04-0.13,0.12-0.13h1.5c0.08,0,0.12,0.04,0.12,0.13V87.82z"/>
	<path class="st0" d="M30.17,90.51c-0.08,0-0.12-0.04-0.12-0.13v-1.26c0-0.08,0.04-0.13,0.12-0.13h1.43c0.17,0,0.32-0.01,0.45-0.03
		s0.25-0.07,0.34-0.14c0.09-0.07,0.17-0.18,0.22-0.32c0.05-0.14,0.08-0.32,0.08-0.55h-0.52c-0.5,0-0.95-0.03-1.34-0.09
		c-0.4-0.06-0.73-0.18-1.01-0.37c-0.28-0.19-0.49-0.45-0.64-0.79s-0.22-0.79-0.22-1.35c0-0.53,0.08-0.98,0.23-1.35
		c0.15-0.37,0.36-0.66,0.61-0.89s0.55-0.39,0.88-0.49c0.33-0.1,0.67-0.15,1.02-0.15c0.37,0,0.72,0.05,1.05,0.14
		c0.33,0.09,0.63,0.24,0.88,0.46c0.25,0.21,0.45,0.5,0.59,0.86c0.15,0.36,0.22,0.81,0.22,1.34v2.91c0,0.78-0.2,1.36-0.6,1.75
		c-0.4,0.38-1.02,0.57-1.86,0.57H30.17z M31.72,84c-0.34,0-0.6,0.12-0.77,0.35c-0.17,0.23-0.26,0.55-0.26,0.95
		c0,0.46,0.1,0.76,0.29,0.92s0.45,0.23,0.77,0.23h0.96v-1.21C32.7,84.41,32.37,84,31.72,84z"/>
	<path class="st0" d="M44.95,87.68c0,0.52-0.08,0.97-0.24,1.34c-0.16,0.37-0.38,0.67-0.67,0.91c-0.28,0.24-0.62,0.41-1,0.52
		s-0.8,0.17-1.24,0.17c-0.43,0-0.84-0.06-1.23-0.17c-0.39-0.11-0.72-0.29-1.01-0.52c-0.29-0.24-0.52-0.54-0.69-0.92
		c-0.17-0.38-0.25-0.83-0.25-1.35c0-0.42,0.06-0.84,0.18-1.27c0.12-0.43,0.29-0.83,0.5-1.2c0.03-0.05,0.1-0.06,0.19-0.04l1.35,0.44
		c0.04,0.02,0.06,0.04,0.07,0.07c0,0.03,0,0.06-0.02,0.09c-0.12,0.23-0.22,0.5-0.32,0.79c-0.1,0.29-0.15,0.62-0.15,0.99
		c0,0.29,0.04,0.54,0.13,0.74c0.08,0.2,0.19,0.36,0.33,0.49c0.14,0.13,0.29,0.21,0.46,0.27c0.17,0.05,0.34,0.08,0.52,0.08
		c0.42,0,0.76-0.12,1-0.36s0.36-0.62,0.36-1.12v-8.01c0-0.08,0.04-0.13,0.12-0.13h1.5c0.08,0,0.12,0.04,0.12,0.13v6.17
		c0.02,0.21,0.11,0.37,0.27,0.49c0.16,0.12,0.39,0.18,0.68,0.18h0.29c0.17,0,0.29,0.06,0.37,0.17c0.08,0.12,0.13,0.31,0.13,0.57
		c0,0.51-0.17,0.76-0.5,0.76c-0.27,0-0.5-0.02-0.7-0.07c-0.2-0.05-0.38-0.15-0.54-0.32V87.68z"/>
	<path class="st0" d="M50.08,88.04c-0.44,0-0.85-0.06-1.22-0.17s-0.68-0.31-0.93-0.59c-0.09,0.15-0.21,0.27-0.36,0.36
		c-0.15,0.09-0.31,0.16-0.47,0.21c-0.16,0.05-0.32,0.08-0.48,0.09s-0.3,0.02-0.42,0.02c-0.17,0-0.29-0.05-0.37-0.16
		s-0.13-0.3-0.13-0.57c0-0.28,0.04-0.48,0.11-0.6c0.08-0.12,0.2-0.17,0.39-0.17h0.36c0.19,0,0.36-0.08,0.52-0.24
		c0.15-0.16,0.24-0.45,0.25-0.89v-0.25c0-0.83,0.24-1.47,0.71-1.92c0.48-0.44,1.15-0.67,2.04-0.67c0.84,0,1.51,0.24,2.01,0.71
		c0.5,0.47,0.75,1.18,0.75,2.13c0,0.06,0,0.11-0.01,0.17c0,0.05-0.01,0.11-0.01,0.16c0.02,0.27,0.1,0.48,0.24,0.6
		c0.14,0.13,0.32,0.19,0.54,0.19h0.36c0.17,0,0.29,0.06,0.38,0.17c0.08,0.12,0.12,0.31,0.12,0.57c0,0.51-0.17,0.76-0.5,0.76
		c-0.15,0-0.3-0.01-0.46-0.02c-0.16-0.01-0.31-0.04-0.46-0.09s-0.29-0.12-0.43-0.22c-0.13-0.09-0.25-0.23-0.35-0.39
		c-0.25,0.3-0.56,0.51-0.94,0.63C50.95,87.98,50.53,88.04,50.08,88.04z M50.08,84c-0.68,0-1.02,0.42-1.02,1.26
		c0,0.47,0.09,0.8,0.26,0.99c0.17,0.19,0.43,0.28,0.77,0.28c0.35,0,0.61-0.09,0.77-0.28c0.17-0.19,0.25-0.52,0.25-0.99
		C51.1,84.42,50.76,84,50.08,84z"/>
	<path class="st0" d="M54.51,83.48c0.29-0.29,0.62-0.53,0.99-0.72c0.37-0.19,0.82-0.28,1.35-0.28c0.55,0,1.01,0.08,1.39,0.24
		c0.38,0.16,0.69,0.38,0.92,0.65c0.24,0.28,0.41,0.61,0.52,0.99c0.11,0.38,0.16,0.79,0.16,1.23v0.2c0.03,0.2,0.11,0.36,0.27,0.47
		c0.15,0.12,0.38,0.17,0.67,0.17h0.29c0.17,0,0.29,0.06,0.37,0.17c0.08,0.12,0.13,0.31,0.13,0.57c0,0.51-0.17,0.76-0.5,0.76
		c-0.35,0-0.65-0.05-0.91-0.14c-0.26-0.1-0.47-0.3-0.64-0.62c-0.17,0.3-0.4,0.5-0.71,0.6c-0.3,0.1-0.66,0.16-1.08,0.16h-3.79
		c-0.17,0-0.29-0.06-0.37-0.17s-0.13-0.3-0.13-0.57c0-0.27,0.04-0.46,0.11-0.59s0.2-0.19,0.39-0.19h3.09c0.2,0,0.36-0.01,0.49-0.04
		s0.22-0.08,0.29-0.15c0.07-0.07,0.12-0.17,0.15-0.29c0.03-0.12,0.04-0.27,0.04-0.46c0-0.21-0.02-0.4-0.06-0.59
		c-0.04-0.18-0.11-0.34-0.21-0.48c-0.1-0.14-0.23-0.25-0.39-0.32S56.98,84,56.74,84c-0.27,0-0.5,0.05-0.71,0.16
		c-0.21,0.1-0.4,0.24-0.57,0.39c-0.06,0.06-0.12,0.06-0.17,0.01l-0.74-0.89C54.47,83.6,54.46,83.53,54.51,83.48z"/>
	<path class="st0" d="M61.07,87.95c-0.17,0-0.29-0.05-0.37-0.16c-0.08-0.1-0.13-0.29-0.13-0.55c0-0.53,0.17-0.8,0.5-0.8h0.77
		c0.21,0,0.36-0.05,0.46-0.14c0.1-0.09,0.14-0.27,0.14-0.52v-2.96c0-0.08,0.04-0.13,0.12-0.13h1.5c0.08,0,0.12,0.04,0.12,0.13v3.55
		c0,0.54-0.11,0.94-0.33,1.19c-0.22,0.25-0.59,0.38-1.11,0.38H61.07z M61.64,81.44c-0.08,0-0.13-0.04-0.13-0.13v-1.22
		c0-0.08,0.04-0.13,0.13-0.13h1.25c0.08,0,0.13,0.04,0.13,0.13v1.22c0,0.08-0.04,0.13-0.13,0.13H61.64z M63.57,81.44
		c-0.08,0-0.13-0.04-0.13-0.13v-1.22c0-0.08,0.04-0.13,0.13-0.13h1.26c0.08,0,0.13,0.04,0.13,0.13v1.22c0,0.08-0.04,0.13-0.13,0.13
		H63.57z"/>
</g>
<g>
	<path class="st1" d="M11.38,94.78c0-0.05,0.03-0.08,0.08-0.08h1.95c0.55,0,0.97,0.13,1.24,0.39c0.28,0.26,0.41,0.61,0.41,1.05
		c0,0.32-0.07,0.58-0.21,0.78c-0.14,0.19-0.31,0.33-0.53,0.42v0.02c0.09,0.03,0.19,0.07,0.29,0.14s0.19,0.15,0.27,0.26
		c0.08,0.1,0.15,0.23,0.2,0.38c0.05,0.15,0.08,0.31,0.08,0.49c0,0.52-0.15,0.91-0.46,1.17s-0.75,0.4-1.33,0.4h-1.91
		c-0.05,0-0.08-0.03-0.08-0.08V94.78z M13.39,97.08c0.31,0,0.54-0.08,0.71-0.23c0.17-0.16,0.25-0.36,0.25-0.62
		c0-0.26-0.08-0.47-0.25-0.63s-0.4-0.23-0.71-0.23h-1.24c-0.03,0-0.05,0.02-0.05,0.05v1.62c0,0.03,0.02,0.05,0.05,0.05H13.39z
		 M12.11,99.49c0,0.03,0.02,0.05,0.05,0.05h1.28c0.33,0,0.58-0.08,0.75-0.25c0.17-0.16,0.26-0.38,0.26-0.66
		c0-0.28-0.09-0.49-0.26-0.66c-0.17-0.16-0.42-0.25-0.75-0.25h-1.28c-0.03,0-0.05,0.02-0.05,0.05V99.49z"/>
	<path class="st1" d="M17.69,100.28c-0.39,0-0.72-0.09-0.99-0.27s-0.45-0.44-0.56-0.78c-0.04-0.12-0.08-0.26-0.1-0.41
		c-0.02-0.15-0.03-0.34-0.03-0.57s0.01-0.42,0.03-0.57s0.05-0.29,0.09-0.41c0.11-0.34,0.29-0.6,0.56-0.78
		c0.27-0.18,0.58-0.27,0.96-0.27c0.37,0,0.69,0.09,0.96,0.27c0.27,0.18,0.45,0.44,0.56,0.77c0.02,0.06,0.04,0.13,0.05,0.2
		s0.03,0.14,0.04,0.23s0.02,0.18,0.02,0.29c0.01,0.11,0.01,0.24,0.01,0.38c0,0.05-0.03,0.08-0.09,0.08h-2.45
		c-0.03,0-0.05,0.02-0.05,0.05c0,0.11,0.01,0.2,0.02,0.27c0.01,0.07,0.03,0.14,0.05,0.2c0.08,0.23,0.2,0.39,0.36,0.5
		s0.37,0.17,0.61,0.17c0.23,0,0.43-0.04,0.59-0.12s0.3-0.18,0.4-0.31c0.04-0.04,0.08-0.05,0.12-0.02l0.33,0.3
		c0.04,0.03,0.04,0.07,0.01,0.11c-0.16,0.19-0.36,0.35-0.62,0.48S18.03,100.28,17.69,100.28z M18.54,97.92
		c0.03,0,0.05-0.02,0.05-0.05c0-0.18-0.02-0.32-0.06-0.43c-0.06-0.19-0.17-0.34-0.33-0.44s-0.34-0.16-0.56-0.16
		s-0.41,0.05-0.56,0.16s-0.26,0.25-0.33,0.44c-0.04,0.11-0.06,0.26-0.06,0.43c0,0.03,0.02,0.05,0.05,0.05H18.54z"/>
	<path class="st1" d="M22.72,100.19c-0.05,0-0.08-0.03-0.08-0.08v-0.34h-0.01c-0.09,0.15-0.23,0.27-0.42,0.36s-0.43,0.15-0.73,0.15
		c-0.18,0-0.35-0.02-0.51-0.07c-0.16-0.05-0.3-0.12-0.41-0.22c-0.12-0.1-0.21-0.22-0.27-0.36s-0.1-0.32-0.1-0.51
		c0-0.41,0.13-0.71,0.4-0.91c0.27-0.19,0.64-0.29,1.11-0.29h0.88c0.03,0,0.05-0.02,0.05-0.05v-0.28c0-0.27-0.06-0.46-0.19-0.58
		c-0.13-0.12-0.37-0.18-0.74-0.18c-0.22,0-0.4,0.03-0.55,0.08c-0.15,0.05-0.27,0.12-0.39,0.2c-0.05,0.04-0.09,0.04-0.11-0.01
		l-0.22-0.37c-0.02-0.04-0.02-0.08,0.02-0.11c0.15-0.11,0.33-0.21,0.55-0.27c0.22-0.07,0.48-0.11,0.77-0.11
		c0.55,0,0.94,0.1,1.17,0.3c0.23,0.2,0.34,0.54,0.34,1.01v2.56c0,0.05-0.03,0.08-0.08,0.08H22.72z M21.64,99.7
		c0.31,0,0.55-0.07,0.72-0.2s0.26-0.32,0.26-0.56v-0.43c0-0.03-0.02-0.05-0.05-0.05h-0.78c-0.34,0-0.59,0.05-0.74,0.15
		s-0.23,0.26-0.23,0.48c0,0.2,0.07,0.35,0.21,0.45C21.18,99.65,21.38,99.7,21.64,99.7z"/>
	<path class="st1" d="M24.65,100.19c-0.05,0-0.08-0.03-0.08-0.08v-3.71c0-0.05,0.03-0.08,0.08-0.08h0.52c0.05,0,0.08,0.03,0.08,0.08
		v0.4h0.01c0.09-0.17,0.21-0.3,0.38-0.41c0.17-0.1,0.38-0.16,0.64-0.16c0.16,0,0.3,0.03,0.44,0.08s0.25,0.12,0.35,0.21
		c0.04,0.04,0.04,0.08,0.02,0.11l-0.3,0.4c-0.03,0.04-0.07,0.05-0.11,0.02c-0.09-0.06-0.19-0.1-0.28-0.14s-0.2-0.05-0.31-0.05
		c-0.3,0-0.51,0.1-0.64,0.31c-0.13,0.21-0.19,0.48-0.19,0.82v2.12c0,0.05-0.03,0.08-0.08,0.08H24.65z"/>
	<path class="st1" d="M27.94,95.45c-0.05,0-0.08-0.03-0.08-0.08v-0.59c0-0.05,0.03-0.08,0.08-0.08h0.55c0.05,0,0.08,0.03,0.08,0.08
		v0.59c0,0.05-0.03,0.08-0.08,0.08H27.94z M27.96,100.19c-0.05,0-0.08-0.03-0.08-0.08v-3.71c0-0.05,0.03-0.08,0.08-0.08h0.52
		c0.05,0,0.08,0.03,0.08,0.08v3.71c0,0.05-0.03,0.08-0.08,0.08H27.96z"/>
	<path class="st1" d="M32.39,100.19c-0.05,0-0.08-0.03-0.08-0.08v-2.26c0-0.31-0.07-0.55-0.21-0.73c-0.14-0.17-0.36-0.26-0.65-0.26
		c-0.26,0-0.48,0.08-0.64,0.25c-0.16,0.17-0.25,0.4-0.25,0.69v2.3c0,0.05-0.03,0.08-0.08,0.08h-0.52c-0.05,0-0.08-0.03-0.08-0.08
		v-3.71c0-0.05,0.03-0.08,0.08-0.08h0.52c0.05,0,0.08,0.03,0.08,0.08v0.36h0.01c0.09-0.15,0.23-0.28,0.41-0.38s0.41-0.15,0.67-0.15
		c0.42,0,0.75,0.13,0.99,0.4c0.24,0.26,0.36,0.62,0.36,1.06v2.42c0,0.05-0.03,0.08-0.08,0.08H32.39z"/>
	<path class="st1" d="M35.53,101.73c-0.27,0-0.53-0.05-0.78-0.16c-0.25-0.11-0.43-0.24-0.56-0.42c-0.03-0.04-0.03-0.08,0.01-0.11
		l0.33-0.33c0.04-0.04,0.08-0.04,0.12,0c0.13,0.12,0.27,0.22,0.42,0.29s0.31,0.1,0.5,0.1c0.32,0,0.57-0.08,0.73-0.25
		c0.16-0.17,0.25-0.43,0.25-0.79V99.6h-0.01c-0.09,0.16-0.22,0.29-0.39,0.39c-0.17,0.1-0.4,0.15-0.68,0.15
		c-0.33,0-0.6-0.08-0.82-0.24c-0.22-0.16-0.38-0.39-0.48-0.7c-0.05-0.14-0.08-0.29-0.1-0.45c-0.02-0.15-0.03-0.34-0.03-0.57
		c0-0.23,0.01-0.42,0.03-0.57c0.02-0.15,0.05-0.3,0.1-0.45c0.1-0.31,0.26-0.54,0.48-0.7c0.22-0.16,0.5-0.24,0.82-0.24
		c0.29,0,0.51,0.05,0.68,0.15c0.17,0.1,0.3,0.23,0.39,0.39h0.01v-0.36c0-0.05,0.03-0.08,0.08-0.08h0.52c0.05,0,0.08,0.03,0.08,0.08
		v3.62c0,0.55-0.14,0.98-0.43,1.27C36.49,101.59,36.08,101.73,35.53,101.73z M35.62,99.51c0.42,0,0.69-0.19,0.83-0.58
		c0.03-0.1,0.05-0.2,0.07-0.32c0.01-0.12,0.02-0.26,0.02-0.43c0-0.17-0.01-0.31-0.02-0.42s-0.04-0.22-0.07-0.33
		c-0.14-0.38-0.41-0.57-0.83-0.57c-0.41,0-0.68,0.19-0.82,0.57c-0.03,0.1-0.06,0.21-0.07,0.33c-0.02,0.12-0.02,0.26-0.02,0.42
		c0,0.31,0.03,0.55,0.1,0.75C34.94,99.32,35.21,99.51,35.62,99.51z"/>
	<path class="st1" d="M40.38,98.84c0-0.3,0.09-0.59,0.26-0.86c0.17-0.27,0.45-0.56,0.84-0.86c-0.12-0.16-0.23-0.29-0.31-0.42
		c-0.09-0.12-0.16-0.23-0.21-0.33c-0.05-0.1-0.09-0.2-0.12-0.29c-0.03-0.09-0.04-0.19-0.04-0.29c0-0.17,0.03-0.32,0.09-0.47
		s0.15-0.27,0.26-0.38c0.11-0.11,0.25-0.19,0.4-0.25c0.15-0.06,0.32-0.09,0.5-0.09c0.19,0,0.37,0.03,0.52,0.09
		c0.15,0.06,0.28,0.15,0.39,0.25s0.19,0.23,0.25,0.38c0.06,0.14,0.09,0.29,0.09,0.46c0,0.12-0.02,0.24-0.05,0.35
		c-0.04,0.11-0.09,0.22-0.17,0.33s-0.17,0.23-0.3,0.35s-0.28,0.25-0.46,0.4l1.04,1.34l0.56-0.69c0.03-0.04,0.07-0.05,0.11-0.02
		l0.31,0.27c0.04,0.03,0.05,0.07,0.02,0.11l-0.63,0.8L44,99.38c0.05,0.06,0.11,0.11,0.15,0.15c0.05,0.03,0.1,0.05,0.17,0.05h0.12
		c0.05,0,0.08,0.03,0.08,0.08v0.45c0,0.05-0.03,0.08-0.08,0.08h-0.22c-0.16,0-0.29-0.02-0.39-0.07c-0.1-0.05-0.2-0.15-0.31-0.31
		l-0.22-0.28c-0.24,0.26-0.48,0.45-0.71,0.57s-0.49,0.18-0.78,0.18c-0.23,0-0.44-0.04-0.62-0.11c-0.18-0.07-0.33-0.17-0.45-0.3
		c-0.12-0.13-0.21-0.28-0.28-0.45C40.41,99.25,40.38,99.05,40.38,98.84z M41.02,98.8c0,0.27,0.07,0.49,0.22,0.65
		c0.15,0.16,0.36,0.23,0.63,0.23c0.19,0,0.37-0.05,0.53-0.15c0.16-0.1,0.35-0.26,0.54-0.48l-1.11-1.45
		c-0.29,0.23-0.5,0.43-0.63,0.62C41.09,98.4,41.02,98.6,41.02,98.8z M41.97,96.73c0.15-0.12,0.27-0.22,0.37-0.31
		c0.09-0.09,0.17-0.17,0.21-0.24c0.05-0.07,0.08-0.14,0.1-0.21c0.02-0.06,0.02-0.13,0.02-0.19c0-0.17-0.06-0.31-0.17-0.42
		c-0.12-0.11-0.27-0.17-0.46-0.17c-0.19,0-0.34,0.06-0.45,0.17c-0.11,0.11-0.16,0.26-0.16,0.43c0,0.06,0.01,0.12,0.02,0.17
		c0.02,0.06,0.04,0.12,0.08,0.19c0.04,0.07,0.1,0.15,0.17,0.24C41.78,96.48,41.87,96.59,41.97,96.73z"/>
	<path class="st1" d="M47.54,94.78c0-0.05,0.03-0.08,0.08-0.08h0.53c0.07,0,0.11,0.03,0.13,0.08l1.64,3.7h0.02l1.61-3.7
		c0.02-0.05,0.06-0.08,0.13-0.08h0.53c0.05,0,0.08,0.03,0.08,0.08v5.33c0,0.05-0.03,0.08-0.08,0.08h-0.51
		c-0.05,0-0.08-0.03-0.08-0.08v-3.82h-0.02l-1.36,3.02c-0.03,0.06-0.08,0.1-0.14,0.1h-0.32c-0.08,0-0.13-0.03-0.15-0.1l-1.36-3.02
		h-0.02v3.82c0,0.05-0.03,0.08-0.08,0.08h-0.51c-0.05,0-0.08-0.03-0.08-0.08V94.78z"/>
	<path class="st1" d="M55.04,100.28c-0.38,0-0.7-0.09-0.96-0.27s-0.45-0.44-0.56-0.77c-0.04-0.13-0.08-0.28-0.1-0.42
		c-0.02-0.15-0.03-0.34-0.03-0.56s0.01-0.41,0.03-0.56c0.02-0.15,0.05-0.29,0.1-0.42c0.11-0.33,0.29-0.59,0.56-0.77
		c0.27-0.18,0.59-0.27,0.96-0.27s0.7,0.09,0.96,0.27c0.27,0.18,0.45,0.44,0.56,0.77c0.04,0.13,0.08,0.27,0.1,0.42
		c0.02,0.14,0.03,0.33,0.03,0.56s-0.01,0.41-0.03,0.56c-0.02,0.15-0.05,0.29-0.1,0.42c-0.11,0.33-0.29,0.58-0.56,0.77
		S55.42,100.28,55.04,100.28z M55.04,99.65c0.21,0,0.4-0.05,0.55-0.16c0.15-0.11,0.26-0.25,0.32-0.45c0.03-0.11,0.05-0.22,0.07-0.33
		C55.99,98.6,56,98.44,56,98.25s-0.01-0.34-0.02-0.45s-0.04-0.22-0.07-0.33c-0.06-0.19-0.17-0.34-0.32-0.45
		c-0.15-0.1-0.33-0.16-0.55-0.16c-0.22,0-0.4,0.05-0.55,0.16c-0.15,0.11-0.26,0.25-0.32,0.45c-0.03,0.11-0.06,0.22-0.07,0.33
		c-0.01,0.11-0.02,0.26-0.02,0.45s0.01,0.34,0.02,0.46c0.01,0.12,0.04,0.23,0.07,0.33c0.06,0.19,0.17,0.34,0.32,0.45
		C54.64,99.6,54.82,99.65,55.04,99.65z"/>
	<path class="st1" d="M57.87,100.19c-0.05,0-0.08-0.03-0.08-0.08v-3.71c0-0.05,0.03-0.08,0.08-0.08h0.52c0.05,0,0.08,0.03,0.08,0.08
		v0.4h0.01c0.09-0.17,0.21-0.3,0.38-0.41c0.17-0.1,0.38-0.16,0.64-0.16c0.16,0,0.3,0.03,0.44,0.08s0.25,0.12,0.35,0.21
		c0.04,0.04,0.04,0.08,0.02,0.11l-0.3,0.4c-0.03,0.04-0.07,0.05-0.11,0.02c-0.09-0.06-0.19-0.1-0.28-0.14s-0.2-0.05-0.31-0.05
		c-0.3,0-0.51,0.1-0.64,0.31c-0.13,0.21-0.19,0.48-0.19,0.82v2.12c0,0.05-0.03,0.08-0.08,0.08H57.87z"/>
	<path class="st1" d="M62.54,100.28c-0.39,0-0.72-0.09-0.99-0.27s-0.45-0.44-0.56-0.78c-0.04-0.12-0.08-0.26-0.1-0.41
		c-0.02-0.15-0.03-0.34-0.03-0.57s0.01-0.42,0.03-0.57s0.05-0.29,0.09-0.41c0.11-0.34,0.29-0.6,0.56-0.78
		c0.27-0.18,0.58-0.27,0.96-0.27c0.37,0,0.69,0.09,0.96,0.27c0.27,0.18,0.45,0.44,0.56,0.77c0.02,0.06,0.04,0.13,0.05,0.2
		s0.03,0.14,0.04,0.23s0.02,0.18,0.02,0.29c0.01,0.11,0.01,0.24,0.01,0.38c0,0.05-0.03,0.08-0.09,0.08H61.6
		c-0.03,0-0.05,0.02-0.05,0.05c0,0.11,0.01,0.2,0.02,0.27c0.01,0.07,0.03,0.14,0.05,0.2c0.08,0.23,0.2,0.39,0.36,0.5
		s0.37,0.17,0.61,0.17c0.23,0,0.43-0.04,0.59-0.12s0.3-0.18,0.4-0.31c0.04-0.04,0.08-0.05,0.12-0.02l0.33,0.3
		c0.04,0.03,0.04,0.07,0.01,0.11c-0.16,0.19-0.36,0.35-0.62,0.48S62.88,100.28,62.54,100.28z M63.39,97.92
		c0.03,0,0.05-0.02,0.05-0.05c0-0.18-0.02-0.32-0.06-0.43c-0.06-0.19-0.17-0.34-0.33-0.44s-0.34-0.16-0.56-0.16
		s-0.41,0.05-0.56,0.16s-0.26,0.25-0.33,0.44c-0.04,0.11-0.06,0.26-0.06,0.43c0,0.03,0.02,0.05,0.05,0.05H63.39z"/>
</g>
<g>
	
		<linearGradient id="SVGID_1_" gradientUnits="userSpaceOnUse" x1="-41.819" y1="95.7571" x2="-3.5929" y2="60.2135" gradientTransform="matrix(0.9797 -0.2005 0.2005 0.9797 35.4887 -43.5051)">
		<stop  offset="2.477800e-04" style="stop-color:#006A98"/>
		<stop  offset="1" style="stop-color:#3BB185"/>
	</linearGradient>
	<path class="st2" d="M20.83,19.24c0.01,0,0.03,0,0.04-0.01l0,0l0,0c3.18-0.65,6.11,1.86,6,5.07c0,0.08,0,0.16-0.01,0.23v0l0,0
		l-0.95,13.21c0.08-0.02,0.16-0.04,0.23-0.05l13.72-2.81c3.27-0.67,6.27,1.97,6.03,5.29l-20.46,4.19l-0.11,1.58l27.02-5.53l0.46-6.5
		c0.12-1.65-1.37-2.96-3-2.63l-17.03,3.49c0.28-3.92,3.14-7.17,6.98-7.96l13.72-2.81c0.01,0,0.02,0,0.03-0.01l0,0
		c0.13-0.03,0.26-0.04,0.39-0.06L21.06,8.8c-5.72-2.63-12,2.35-10.74,8.51l0.87,4.26c0.72-0.38,1.49-0.66,2.31-0.83L20.83,19.24z
		 M60.95,27.19l-2.26-1.04c0.33,0.5,0.57,1.05,0.71,1.65c0.11,0.48,0.15,0.98,0.11,1.5l-0.01,0l-0.68,9.79l0,0v0
		c-0.02,0.26-0.05,0.51-0.09,0.76c-0.56,3.57-3.27,6.45-6.86,7.19l0,0c-0.01,0-0.02,0.01-0.04,0.01l-2.61,0.53
		c2.05-0.42,3.46,1,3.19,3.18l10.85-11.28C66.93,35.68,65.75,29.4,60.95,27.19z M32.57,54.93c-0.33,2.25-2.3,4.41-4.39,4.84
		c-2.09,0.43-3.51-1.05-3.18-3.29c0.33-2.25,2.3-4.41,4.39-4.84l-4.5,0.92c-0.01,0-0.03,0-0.04,0.01l0,0h0
		c-3.18,0.65-6.11-1.86-6-5.07c0-0.08,0-0.16,0.01-0.23l0,0l0,0l1.54-21.41l-7.99,1.64l8.01,39.17c1.24,6.06,8.77,8.24,13.05,3.79
		L47.6,55.77c-1.85,0.16-3.07-1.26-2.76-3.35c0.33-2.25,2.3-4.41,4.39-4.84l-19.83,4.06C31.48,51.21,32.9,52.69,32.57,54.93z"/>
	
		<linearGradient id="SVGID_2_" gradientUnits="userSpaceOnUse" x1="-14.6315" y1="45.0438" x2="-29.2791" y2="124.141" gradientTransform="matrix(0.9797 -0.2005 0.2005 0.9797 35.4887 -43.5051)">
		<stop  offset="2.477800e-04" style="stop-color:#FFFFFF"/>
		<stop  offset="1" style="stop-color:#FFFFFF;stop-opacity:0"/>
	</linearGradient>
	<path class="st3" d="M30.74,51.64c0.05-0.1,0.1-0.21,0.14-0.31l-1.49,0.31C29.88,51.54,30.34,51.55,30.74,51.64z M24.84,52.57
		L24.84,52.57L24.84,52.57c-3.18,0.65-6.11-1.85-6-5.07c0-0.08,0-0.16,0.01-0.23l0,0l0,0l1.54-21.41l-7.99,1.64l8.01,39.17
		c0.44,2.17,1.7,3.84,3.32,4.89c1.01-4.1,2.22-8.01,3.59-11.71c-1.6-0.09-2.6-1.44-2.32-3.36c0.33-2.25,2.3-4.41,4.39-4.84
		l-4.5,0.92C24.87,52.57,24.86,52.57,24.84,52.57z M39.76,26.81l8.68-1.78c0.78-0.87,1.57-1.71,2.35-2.52L21.06,8.8
		c-5.72-2.63-12,2.35-10.74,8.51l0.87,4.26c0.72-0.38,1.49-0.66,2.31-0.83l7.33-1.5c0.01,0,0.03,0,0.04-0.01l0,0l0,0
		c3.18-0.65,6.11,1.86,6,5.07c0,0.08,0,0.16-0.01,0.23l0,0l0,0l-0.95,13.21c0.08-0.02,0.16-0.04,0.23-0.05l13.72-2.81
		c0.25-0.05,0.49-0.08,0.73-0.09c0.46-0.64,0.92-1.28,1.39-1.9l-9.2,1.88C33.06,30.85,35.91,27.6,39.76,26.81z M25.32,45.95
		l9.36-1.91c0.34-0.6,0.68-1.19,1.03-1.77l-10.27,2.1L25.32,45.95z"/>
</g>
</svg>
