<?xml version="1.0" encoding="utf-8"?>
<!-- Generator: Adobe Illustrator 24.3.0, SVG Export Plug-In . SVG Version: 6.00 Build 0)  -->
<svg version="1.1" xmlns="http://www.w3.org/2000/svg" xmlns:xlink="http://www.w3.org/1999/xlink" x="0px" y="0px"
	 viewBox="0 0 97.04 48.76" style="enable-background:new 0 0 97.04 48.76;" xml:space="preserve">
<style type="text/css">
	.st0{fill:#FFFFFF;}
	.st1{font-family:'beINNormal';}
	.st2{font-size:4.6195px;}
	.st3{clip-path:url(#SVGID_2_);fill:#17171D;}
	.st4{clip-path:url(#SVGID_2_);fill:#FAEAA9;}
</style>
<g id="Background">
</g>
<g id="Ornament">
</g>
<g id="Design_elements">
	<g>
		<g>
			<path class="st0" d="M6.76,24.59c-0.5,1.49-0.99,1.98-2.48,2.48h4.96C7.76,26.58,7.26,26.08,6.76,24.59 M11.44,27.07h6.94
				c-1.27-0.33-1.9-0.99-2.81-2.48l-5.11-9.09c-0.56,1.04-1.24,2.5,0.15,5.03l0.4,0.69c0.76,1.42-0.55,1.59-1.69,1.75
				c1.77,0.17,3.07,0.71,3.57,1.62C13.71,26.1,12.96,26.74,11.44,27.07"/>
			<path class="st0" d="M29.03,27.07h3.31v-3.31C31.84,25.58,30.85,26.58,29.03,27.07 M23.08,27.07h4.3
				c-0.91-0.94-1.07-1.55-1.07-3.31v-4.96c0-1.75,0.17-2.36,1.07-3.31h-4.3c0.91,0.94,1.07,1.55,1.07,3.31v4.96
				C24.16,25.52,23.99,26.13,23.08,27.07"/>
			<path class="st0" d="M39.02,24.59c-0.5,1.49-0.99,1.98-2.48,2.48h4.96C40.01,26.58,39.51,26.08,39.02,24.59 M52.18,24.59
				l-4.12-9.09c-0.56,1.04-1.4,2.5-0.28,5.03l1.84,4.07c0.79,1.8,1.9,2.48,5.37,2.48C53.71,26.74,52.87,26.08,52.18,24.59
				 M46.34,24.59l-4.12-9.09c-0.56,1.04-1.41,2.5-0.28,5.03l1.84,4.07c0.66,1.49,0.07,2.15-0.96,2.48h6.33
				C47.88,26.74,47.04,26.08,46.34,24.59"/>
			<path class="st0" d="M61.53,24.59c-0.5,1.49-0.99,1.98-2.48,2.48h4.96C62.52,26.58,62.03,26.08,61.53,24.59 M66.21,27.07h6.94
				c-1.27-0.33-1.9-0.99-2.81-2.48l-5.11-9.09c-0.56,1.04-1.24,2.5,0.15,5.03l0.4,0.69c0.76,1.42-0.55,1.59-1.69,1.75
				c1.77,0.17,3.07,0.71,3.57,1.62C68.48,26.1,67.73,26.74,66.21,27.07"/>
		</g>
		<g>
			<text transform="matrix(1 0 0 1 47.6338 37.0779)" class="st0 st1 st2">C</text>
			<text transform="matrix(1 0 0 1 51.6299 37.0779)" class="st0 st1 st2">E</text>
			<text transform="matrix(1 0 0 1 55.3721 37.0779)" class="st0 st1 st2">N</text>
			<text transform="matrix(1 0 0 1 59.3682 37.0779)" class="st0 st1 st2">T</text>
			<text transform="matrix(1 0 0 1 62.8506 37.0779)" class="st0 st1 st2">E</text>
			<text transform="matrix(1 0 0 1 66.5928 37.0779)" class="st0 st1 st2">R</text>
			<text transform="matrix(1 0 0 1 70.5889 37.0779)" class="st0 st1 st2"> </text>
		</g>
		<g>
			<defs>
				<rect id="SVGID_1_" x="77.08" y="2.6" width="12.13" height="43.31"/>
			</defs>
			<clipPath id="SVGID_2_">
				<use xlink:href="#SVGID_1_"  style="overflow:visible;"/>
			</clipPath>
			<path class="st3" d="M85.75,8.21c0.03-0.47,1-0.87,1-0.87c0.52-0.39-0.04-0.45,0.05-0.74c0.09-0.29-0.14-0.45-0.14-0.45
				c0.09-0.18-0.29-0.01-0.15-0.38c0.14-0.37-0.06-0.44-0.21-0.51c-0.15-0.08-0.59,0.02-1.04-0.88c-0.43-0.88-1.98-0.63-1.98-0.63
				s1.08,2.03,0.87,3.87c-0.21,1.84,0.42,3.99,0.97,2.62C85.68,8.87,85.62,8.76,85.75,8.21"/>
			<path class="st4" d="M80.81,3.71c0,0,0.03-0.61,0.89-0.74c0.86-0.13,2.17,1.4,1.98,5.31c-0.19,3.91,1.12,3.72,2.24,1.97
				c1.12-1.75,2.4-3.12,3.29-1.34c0,0-1.18-0.57-1.98,2.32c-0.8,2.89-5.57,3.34-5.03-1.3C82.84,4.46,82.1,2.62,80.81,3.71"/>
			<path class="st4" d="M81.95,10.06c0,0-1.7,0.36-0.68,2.9c1.02,2.54,4.15,4.43,6.41-1.21c0,0-1.5,3.17-4.49,1.66
				C81.35,12.5,81.95,10.06,81.95,10.06"/>
			<path class="st4" d="M87.93,10.06c0,0-0.16,3.82-4.12,9.06c-3.96,5.25-5.23,17.51,2.91,26.78c0,0-8.33-11.26-1.71-23.71
				C85.01,22.19,88.31,14.95,87.93,10.06"/>
			<path class="st3" d="M85.73,15.43c0,0-1.54,1.67-3.52,2.37c-1.98,0.7-5.12,7.61-1.95,14.38c0,0-0.89-7.47,2.18-11.81
				C85.5,16.04,85.73,15.43,85.73,15.43"/>
		</g>
	</g>
</g>
<g id="Text">
</g>
</svg>
